<?xml version="1.0" encoding="UTF-8" standalone="no"?>
<!-- Created with Inkscape (http://www.inkscape.org/) -->

<svg
   xmlns:dc="http://purl.org/dc/elements/1.1/"
   xmlns:cc="http://creativecommons.org/ns#"
   xmlns:rdf="http://www.w3.org/1999/02/22-rdf-syntax-ns#"
   xmlns:svg="http://www.w3.org/2000/svg"
   xmlns="http://www.w3.org/2000/svg"
   xmlns:sodipodi="http://sodipodi.sourceforge.net/DTD/sodipodi-0.dtd"
   xmlns:inkscape="http://www.inkscape.org/namespaces/inkscape"
   width="300"
   height="600"
   viewBox="0 0 79.374998 158.75"
   version="1.1"
   id="svg8"
   inkscape:version="0.92.4 (33fec40, 2019-01-16)"
   sodipodi:docname="rick.svg">
  <defs
     id="defs2" />
  <sodipodi:namedview
     id="base"
     pagecolor="#ffffff"
     bordercolor="#666666"
     borderopacity="1.0"
     inkscape:pageopacity="0.0"
     inkscape:pageshadow="2"
     inkscape:zoom="1.4142136"
     inkscape:cx="198.70985"
     inkscape:cy="338.35294"
     inkscape:document-units="mm"
     inkscape:current-layer="layer2"
     showgrid="false"
     units="px"
     showguides="false"
     inkscape:guide-bbox="true"
     inkscape:window-width="1920"
     inkscape:window-height="1026"
     inkscape:window-x="0"
     inkscape:window-y="27"
     inkscape:window-maximized="1">
    <sodipodi:guide
       position="0,43.089286"
       orientation="1,0"
       id="guide3713"
       inkscape:locked="false" />
    <sodipodi:guide
       position="79.374998,46.869048"
       orientation="1,0"
       id="guide3715"
       inkscape:locked="false" />
    <sodipodi:guide
       position="49.892856,158.75"
       orientation="0,1"
       id="guide3717"
       inkscape:locked="false" />
  </sodipodi:namedview>
  <metadata
     id="metadata5">
    <rdf:RDF>
      <cc:Work
         rdf:about="">
        <dc:format>image/svg+xml</dc:format>
        <dc:type
           rdf:resource="http://purl.org/dc/dcmitype/StillImage" />
        <dc:title />
      </cc:Work>
    </rdf:RDF>
  </metadata>
  <g
     inkscape:groupmode="layer"
     id="layer8"
     inkscape:label="Layer 8"
     style="display:inline">
    <path
       style="fill:#cee8cd;fill-opacity:1;stroke:#000000;stroke-width:0.26458332px;stroke-linecap:butt;stroke-linejoin:miter;stroke-opacity:1"
       d="m 10.583333,117.07812 c 11.13313,-5.25769 23.484396,-6.55644 37.438541,-2.64583 L 42.399479,81.822395 41.539583,51.395312 18.653125,53.776562 16.007291,91.810416 14.155208,108.94219 Z"
       id="path3811"
       inkscape:connector-curvature="0"
       sodipodi:nodetypes="cccccccc" />
  </g>
  <g
     inkscape:groupmode="layer"
     id="layer12"
     inkscape:label="Layer 12"
     style="display:inline">
    <path
       style="fill:#cee8cd;fill-opacity:1;stroke:#000000;stroke-width:0.26458332px;stroke-linecap:butt;stroke-linejoin:miter;stroke-opacity:1"
       d="m 68.287362,44.251734 c 0.365751,0.961814 0.987304,1.028324 0.901179,3.571706 l -4.502634,3.257031 -2.853103,-1.590254 5.144939,-5.752976 z"
       id="path3833"
       inkscape:connector-curvature="0"
       sodipodi:nodetypes="cccccc" />
  </g>
  <g
     inkscape:groupmode="layer"
     id="layer2"
     inkscape:label="Layer 2"
     style="display:inline">
    <path
       style="fill:#0097e6;fill-opacity:1;stroke:#000000;stroke-width:0.26458332px;stroke-linecap:butt;stroke-linejoin:miter;stroke-opacity:1"
       d="m 50.866145,30.757812 5.027083,-3.439583 c -0.95753,-1.533963 -2.58301,-2.399976 -4.034895,-3.439583 3.533498,-2.734028 4.884391,-5.468055 4.894791,-8.202083 -1.631597,0.8483 -3.263194,1.224166 -4.894791,1.190625 0.751804,-2.449278 0.901374,-5.400418 0.595312,-8.7312501 -2.13818,2.0477531 -4.264598,4.1039081 -7.606771,5.2916671 -1.096276,-4.268773 -3.274371,-6.6143118 -5.953124,-8.069792 -0.343374,2.7340277 -0.85864,5.468055 -2.248959,8.202083 -2.89286,-2.116255 -6.003465,-3.143786 -9.061979,-4.4317706 1.661652,3.5595166 3.338573,7.1164876 3.96875,10.8479166 -3.086805,-0.187179 -6.173611,0.05574 -9.260416,0.926042 2.430026,1.688386 4.895766,3.305342 6.81302,6.01927 l -7.077604,3.638021 5.886979,1.455208 -2.84427,2.976562 4.167187,-0.330729 c -0.317197,1.601032 -0.993843,2.842616 -1.653646,4.101042 2.599666,-0.573264 4.350623,-1.146528 6.283854,-1.719792 z"
       id="path3785"
       inkscape:connector-curvature="0"
       sodipodi:nodetypes="cccccccccccccccccccc" />
    <path
       style="fill:#0097e6;fill-opacity:1;stroke:#000000;stroke-width:0.26458332px;stroke-linecap:butt;stroke-linejoin:miter;stroke-opacity:1"
       d="m 62.640103,42.267191 c 2.065987,1.719132 3.752417,2.552632 5.291666,3.042708 l -3.307291,4.497917 -4.034896,-3.571875 z"
       id="path3787"
       inkscape:connector-curvature="0"
       sodipodi:nodetypes="ccccc" />
    <path
       style="fill:#0097e6;fill-opacity:1;stroke:#000000;stroke-width:0.26458332px;stroke-linecap:butt;stroke-linejoin:miter;stroke-opacity:1"
       d="m 31.882292,40.547395 c 0.484755,6.042183 3.910329,4.823938 5.886978,2.910417 l 2.976563,6.35 -0.992188,5.754687 C 37.80632,58.84365 36.506692,63.85199 35.057291,68.460937 33.847449,73.063298 32.96851,80.423173 31.286979,81.094791 l -2.182813,2.248958 -7.276041,-0.264583 0.79375,-33.602083 5.027083,-7.342188 z"
       id="path3789"
       inkscape:connector-curvature="0"
       sodipodi:nodetypes="ccccccccccc" />
  </g>
  <g
     inkscape:groupmode="layer"
     id="layer3"
     inkscape:label="Layer 3"
     style="display:inline">
    <path
       style="fill:#ffffff;fill-opacity:1;stroke:#000000;stroke-width:0.26458332px;stroke-linecap:butt;stroke-linejoin:miter;stroke-opacity:1"
       d="m 19.116146,143.20573 -0.06615,5.35781 4.630208,-0.19844 0.198438,-5.75469 z"
       id="path3792"
       inkscape:connector-curvature="0" />
    <path
       style="fill:#ffffff;fill-opacity:1;stroke:#000000;stroke-width:0.26458332px;stroke-linecap:butt;stroke-linejoin:miter;stroke-opacity:1"
       d="m 36.5125,143.00729 0.198437,5.4901 3.902604,-0.66145 -0.264583,-4.10105 z"
       id="path3794"
       inkscape:connector-curvature="0" />
  </g>
  <g
     inkscape:groupmode="layer"
     id="layer4"
     inkscape:label="Layer 4"
     style="display:inline">
    <path
       style="fill:#323234;fill-opacity:1;stroke:#000000;stroke-width:0.26458332px;stroke-linecap:butt;stroke-linejoin:miter;stroke-opacity:1"
       d="m 18.190104,147.43906 5.688542,-0.39687 6.283854,6.94531 H 16.073437 Z"
       id="path3797"
       inkscape:connector-curvature="0" />
    <path
       style="fill:#323234;fill-opacity:1;stroke:#000000;stroke-width:0.26458332px;stroke-linecap:butt;stroke-linejoin:miter;stroke-opacity:1"
       d="m 36.247916,147.43906 -1.521354,6.87917 16.338021,0.13229 -10.186459,-7.87136 z"
       id="path3799"
       inkscape:connector-curvature="0" />
  </g>
  <g
     inkscape:groupmode="layer"
     id="layer5"
     inkscape:label="Layer 5"
     style="display:inline">
    <path
       style="fill:#685128;fill-opacity:1;stroke:#000000;stroke-width:0.26458332px;stroke-linecap:butt;stroke-linejoin:miter;stroke-opacity:1"
       d="m 17.4625,104.57656 2.182812,10.3849 c 0.448588,12.09807 -0.926041,19.18229 -1.389062,28.77343 l 6.019271,-0.0661 c 0.485095,-9.92183 2.460236,-17.42234 1.455208,-29.76563 C 24.325407,106.713 23.370991,99.342475 21.166666,92.471914 l 5.886979,0.132292 7.805209,17.793224 c 1.344169,2.86672 2.371977,5.89162 2.315104,9.45886 -0.44944,7.88797 -0.135537,15.4706 -1.389063,23.68021 l 4.696354,1.25677 c 0.806342,-5.0019 1.329118,-10.57093 1.785938,-16.27188 0.340536,-4.9098 1.114495,-9.87377 0.132292,-14.61823 L 31.683854,87.246393 c -0.108561,-1.150734 0.113133,-3.127105 -0.33073,-3.439583 L 16.404166,82.417747 Z"
       id="path3802"
       inkscape:connector-curvature="0"
       sodipodi:nodetypes="ccccccccccccccccc" />
  </g>
  <g
     inkscape:groupmode="layer"
     id="layer6"
     inkscape:label="Layer 6"
     style="display:inline">
    <path
       style="fill:#2f1f06;fill-opacity:1;stroke:#000000;stroke-width:0.26458332px;stroke-linecap:butt;stroke-linejoin:miter;stroke-opacity:1"
       d="m 31.220833,81.094791 c 0.910771,0.926042 0.668815,1.852083 0,2.778125 L 20.703646,83.674478 v -2.711979 z"
       id="path3805"
       inkscape:connector-curvature="0"
       sodipodi:nodetypes="ccccc" />
  </g>
  <g
     inkscape:groupmode="layer"
     id="layer7"
     inkscape:label="Layer 7"
     style="display:inline">
    <path
       style="fill:#fbdf3d;fill-opacity:1;stroke:#000000;stroke-width:0.26458332px;stroke-linecap:butt;stroke-linejoin:miter;stroke-opacity:1"
       d="m 23.283333,80.764061 3.571875,-0.06615 v 3.175 l -3.770312,0.06615 z"
       id="path3808"
       inkscape:connector-curvature="0" />
  </g>
  <g
     inkscape:groupmode="layer"
     id="layer9"
     inkscape:label="Layer 9"
     style="display:inline">
    <path
       style="fill:#ffffff;fill-opacity:1;stroke:#000000;stroke-width:0.26458332px;stroke-linecap:butt;stroke-linejoin:miter;stroke-opacity:1"
       d="M 48.021874,114.43229 C 46.508491,95.595738 45.010473,76.766868 42.465624,57.414583 l 8.995834,9.392708 c 1.323985,1.201539 2.099162,0.573714 2.910416,0.06615 l 14.816667,-19.05 c -3.256364,2.131083 -8.264545,-0.699824 -6.548438,-5.55625 L 52.519791,58.737503 43.193229,47.492712 c -1.465634,-1.709366 -2.830014,-3.519986 -5.490104,-4.034896 0.731395,3.108854 0.978985,6.217708 1.190625,9.326562 l 1.455208,36.049479 c 0.739172,10.091497 4.633655,17.478443 7.672916,25.598433 z"
       id="path3814"
       inkscape:connector-curvature="0"
       sodipodi:nodetypes="cccccccccccc" />
    <path
       style="fill:#ffffff;fill-opacity:1;stroke:#000000;stroke-width:0.26458332px;stroke-linecap:butt;stroke-linejoin:miter;stroke-opacity:1"
       d="m 31.882292,40.547395 -5.754688,-0.463021 c -2.252152,-0.252693 -3.780015,0.798334 -5.159375,2.116667 L 4.0348958,59.928124 c -1.5745149,2.007002 -1.3179896,2.682339 -0.9921875,3.307292 2.7183121,5.583258 7.7067097,11.815111 11.5755207,17.727083 l 4.630208,-4.233333 -9.9880204,-15.345833 0.7937504,1.190625 10.847916,-11.90625 -5.093229,5.622395 -0.992188,13.758334 4.431771,6.680729 -4.431771,4.233333 c -0.198095,12.604614 -1.393105,24.744001 -4.233333,36.115621 6.492556,-8.27474 10.352086,-17.301782 11.90625,-26.987496 1.98456,-10.473044 2.094778,-21.414674 2.778125,-32.213021 0.421916,-5.730563 1.289136,-10.853892 3.638021,-13.95677 0.855564,-1.261103 1.771802,-2.461532 2.976563,-3.373438 z"
       id="path3816"
       inkscape:connector-curvature="0"
       sodipodi:nodetypes="ccccccccccccccccccc" />
  </g>
  <g
     inkscape:groupmode="layer"
     id="layer10"
     inkscape:label="Layer 10"
     style="display:inline">
    <path
       style="fill:none;stroke:#000000;stroke-width:0.26458332px;stroke-linecap:butt;stroke-linejoin:miter;stroke-opacity:1"
       d="m 15.742708,82.748436 c 2.27634,-1.475479 3.334864,-3.356897 4.034896,-5.357812"
       id="path3819"
       inkscape:connector-curvature="0"
       sodipodi:nodetypes="cc" />
    <path
       style="fill:#ffffff;fill-opacity:1;stroke:#000000;stroke-width:0.26458332px;stroke-linecap:butt;stroke-linejoin:miter;stroke-opacity:1"
       d="m 22.621875,79.441145 c 2.745747,5.136415 2.703937,9.121448 -2.645834,10.914062"
       id="path3821"
       inkscape:connector-curvature="0"
       sodipodi:nodetypes="cc" />
    <path
       style="fill:#ffffff;fill-opacity:1;stroke:#000000;stroke-width:0.26458332px;stroke-linecap:butt;stroke-linejoin:miter;stroke-opacity:1"
       d="m 31.882291,40.547395 c -4.404785,3.121198 -8.37845,7.320195 -11.377083,13.956771 l 1.984375,3.902604 -3.638021,2.976563 5.55625,11.112499 C 25.405239,58.96126 25.941209,44.535598 31.882291,40.547395 Z"
       id="path3823"
       inkscape:connector-curvature="0"
       sodipodi:nodetypes="cccccc" />
    <path
       style="fill:#ffffff;fill-opacity:1;stroke:#000000;stroke-width:0.26458332px;stroke-linecap:butt;stroke-linejoin:miter;stroke-opacity:1"
       d="m 37.703125,43.457815 c 1.357186,10.124243 1.579485,20.70244 2.116666,31.154684 l 4.828646,-9.525 -3.638021,-4.365625 3.439583,-4.564062 C 42.390852,51.671398 40.28306,47.249844 37.703125,43.457815 Z"
       id="path3825"
       inkscape:connector-curvature="0"
       sodipodi:nodetypes="cccccc" />
  </g>
  <g
     inkscape:groupmode="layer"
     id="layer11"
     inkscape:label="Layer 11"
     style="display:inline">
    <path
       style="fill:#eadacd;fill-opacity:1;stroke:#000000;stroke-width:0.26458332px;stroke-linecap:butt;stroke-linejoin:miter;stroke-opacity:1"
       d="m 18.562174,77.349283 0.859896,0.868164 c -0.418511,1.294524 -1.203826,2.439194 -2.282031,3.447851 l -1.471745,-1.63711 z"
       id="path3828"
       inkscape:connector-curvature="0"
       sodipodi:nodetypes="ccccc" />
    <path
       style="fill:#eadacd;fill-opacity:1;stroke:#000000;stroke-width:0.26458332px;stroke-linecap:butt;stroke-linejoin:miter;stroke-opacity:1"
       d="m 31.882291,40.547395 c -1.568424,5.471424 3.581588,5.671845 5.820834,2.91042 l 1.538724,-2.293044 -5.425573,-3.601458 z"
       id="path3830"
       inkscape:connector-curvature="0"
       sodipodi:nodetypes="ccccc" />
  </g>
  <g
     inkscape:groupmode="layer"
     id="layer13"
     inkscape:label="Layer 13"
     style="display:inline">
    <path
       style="fill:#eadacd;fill-opacity:1;stroke:#000000;stroke-width:0.26458332px;stroke-linecap:butt;stroke-linejoin:miter;stroke-opacity:1"
       d="m 71.907404,34.613746 c 3.095487,0.221231 1.779476,4.474897 1.730568,5.378799 -1.030846,2.786134 -2.80626,4.555665 -5.706203,5.846521 -2.242866,0.55033 -4.265144,-0.212757 -5.343242,-2.803055 -0.797437,-2.039765 -0.256432,-3.490166 0.104759,-5.148213 -0.512074,0.538416 -0.845568,0.283848 -0.935444,-0.187083 -0.08297,-0.899412 -0.199285,-1.803586 0.140322,-2.642629 0.272119,-0.757108 1.020327,-1.011952 1.660411,-1.145918 0.557939,-0.07348 1.243382,-0.01947 1.987818,0.09355 0.233861,-0.265043 0.419198,-0.389332 1.075759,-0.561268 0.615606,-0.07705 1.129732,0.01797 1.683797,0.187089 0.754892,-2.584441 -0.219198,-5.319228 -0.818513,-8.021426 -0.266359,-1.272004 1.488546,-1.031801 1.941046,-0.280633 0.730739,1.032511 1.357613,2.085795 1.777341,3.180507 0.889961,2.26891 0.6159,4.122097 0.701581,6.103763 z"
       id="path3836"
       inkscape:connector-curvature="0"
       sodipodi:nodetypes="ccccccccccccccc" />
  </g>
  <g
     inkscape:groupmode="layer"
     id="layer14"
     inkscape:label="Layer 14"
     style="display:inline">
    <path
       style="fill:none;stroke:#000000;stroke-width:0.26458332px;stroke-linecap:butt;stroke-linejoin:miter;stroke-opacity:1"
       d="m 65.452843,33.982323 c 0.837019,0.393461 1.181648,1.103459 1.145918,2.057974"
       id="path3839"
       inkscape:connector-curvature="0"
       sodipodi:nodetypes="cc" />
    <path
       style="fill:none;stroke:#000000;stroke-width:0.26458332px;stroke-linecap:butt;stroke-linejoin:miter;stroke-opacity:1"
       d="m 68.305949,33.631539 c 0.623879,0.437717 1.049343,0.654786 1.192687,2.057967"
       id="path3841"
       inkscape:connector-curvature="0"
       sodipodi:nodetypes="cc" />
  </g>
  <g
     inkscape:groupmode="layer"
     id="layer15"
     inkscape:label="Layer 15"
     style="display:inline">
    <path
       style="fill:#eadacd;fill-opacity:1;stroke:#000000;stroke-width:0.26458332px;stroke-linecap:butt;stroke-linejoin:miter;stroke-opacity:1"
       d="m 32.226022,30.220084 c -0.209958,-4.810172 1.146227,-9.018455 3.928863,-12.581713 3.096561,-2.84941 6.039856,-3.488924 9.260889,-2.853102 3.175926,0.602072 5.598883,2.145354 6.781964,5.238483 0.212055,1.583281 0.512086,4.795753 -0.374177,6.314242 l -0.701583,4.256269 c -0.27505,1.421704 -0.630798,2.857462 -1.169305,5.098164 l 0.140317,3.414368 -2.572469,1.028988 c -2.183616,2.733524 -5.018157,2.734715 -7.810952,2.666015 -1.906947,-0.169589 -3.719867,-0.102428 -5.986836,-2.432152 -2.091164,-1.964682 -1.975586,-3.653522 -2.15152,-5.3788 -4.090483,-1.036542 -3.088391,-5.854268 0.654809,-4.770762 z"
       id="path3844"
       inkscape:connector-curvature="0"
       sodipodi:nodetypes="ccccccccccccc" />
  </g>
  <g
     inkscape:groupmode="layer"
     id="layer16"
     inkscape:label="Layer 16"
     style="display:inline">
    <path
       style="fill:none;stroke:#000000;stroke-width:0.26458332px;stroke-linecap:butt;stroke-linejoin:miter;stroke-opacity:1"
       d="m 33.48887,34.710213 c 5.095017,0.442998 10.120396,1.373462 14.967096,3.554683"
       id="path3847"
       inkscape:connector-curvature="0"
       sodipodi:nodetypes="cc" />
    <path
       style="fill:none;stroke:#000000;stroke-width:0.26458332px;stroke-linecap:butt;stroke-linejoin:miter;stroke-opacity:1"
       d="m 34.330769,32.652237 c -1.456752,0.941923 -3.254438,1.703352 -0.608036,4.817533"
       id="path3849"
       inkscape:connector-curvature="0"
       sodipodi:nodetypes="cc" />
    <path
       style="fill:none;stroke:#000000;stroke-width:0.26458332px;stroke-linecap:butt;stroke-linejoin:miter;stroke-opacity:1"
       d="m 47.380204,31.950654 c 0.98069,0.261992 1.793752,0.188727 2.525697,-0.04677"
       id="path3852"
       inkscape:connector-curvature="0"
       sodipodi:nodetypes="cc" />
    <path
       style="fill:none;stroke:#000000;stroke-width:0.26458332px;stroke-linecap:butt;stroke-linejoin:miter;stroke-opacity:1"
       d="m 36.06134,29.144325 c 1.615561,1.339092 2.03609,0.970996 2.853103,1.169305"
       id="path3854"
       inkscape:connector-curvature="0"
       sodipodi:nodetypes="cc" />
  </g>
  <g
     inkscape:groupmode="layer"
     id="layer17"
     inkscape:label="Layer 17"
     style="display:inline">
    <path
       style="fill:#ffffff;fill-opacity:1;stroke:#000000;stroke-width:0.26458332px;stroke-linecap:butt;stroke-linejoin:miter;stroke-opacity:1"
       d="m 44.714191,28.957235 c 2.6426,3.52685 7.195728,2.538108 8.231903,-1.028986 -1.67655,-3.216584 -6.457428,-3.571341 -8.091587,-1.262849 z"
       id="path3856"
       inkscape:connector-curvature="0"
       sodipodi:nodetypes="cccc" />
  </g>
  <g
     inkscape:groupmode="layer"
     id="layer18"
     inkscape:label="Layer 18"
     style="display:inline">
    <path
       style="fill:#eadacd;fill-opacity:1;stroke:#000000;stroke-width:0.26458332px;stroke-linecap:butt;stroke-linejoin:miter;stroke-opacity:1"
       d="m 52.946093,27.92825 c 0.130528,-1.566204 -0.411513,-2.908218 -1.777344,-3.975636 l -6.080381,0.04677 -0.23386,2.666013 c 2.544757,-0.633598 5.460523,-0.617941 8.091585,1.262853 z"
       id="path3859"
       inkscape:connector-curvature="0"
       sodipodi:nodetypes="ccccc" />
    <circle
       style="fill:#000000;fill-opacity:1;stroke-width:0.26458332"
       id="path3863"
       cx="48.806755"
       cy="27.296824"
       r="0.3975634" />
  </g>
  <g
     inkscape:groupmode="layer"
     id="layer19"
     inkscape:label="Layer 19"
     style="display:inline">
    <g
       inkscape:groupmode="layer"
       id="layer20"
       inkscape:label="Layer 20">
      <path
         style="display:inline;fill:#eadacd;fill-opacity:1;stroke:none;stroke-width:0.26458332px;stroke-linecap:butt;stroke-linejoin:miter;stroke-opacity:1"
         d="m 46.491532,24.233247 -1.309618,1.870887 -0.467723,2.853101 c 0,0 -0.982215,-0.748355 -0.982215,-1.356392 0,-0.608038 1.356392,-3.601459 1.356392,-3.601459 z"
         id="path5852"
         inkscape:connector-curvature="0" />
    </g>
    <path
       style="fill:#eadacd;fill-opacity:1;stroke:#000000;stroke-width:0.26458332px;stroke-linecap:butt;stroke-linejoin:miter;stroke-opacity:1"
       d="m 46.491532,24.233247 c 0,0 -0.744882,1.117354 -1.309618,1.870887 -0.159123,2.495705 -0.06149,5.145464 -0.795129,7.296458 -0.307621,0.898498 -0.801663,1.498721 -1.730568,1.403165 -0.483313,-0.321732 -0.966625,-0.6327 -1.449938,-1.683798"
       id="path3866"
       inkscape:connector-curvature="0"
       sodipodi:nodetypes="ccccc" />
  </g>
  <g
     inkscape:groupmode="layer"
     id="layer21"
     inkscape:label="Layer 21"
     style="display:inline">
    <path
       style="fill:#ffffff;fill-opacity:1;stroke:#000000;stroke-width:0.26458332px;stroke-linecap:butt;stroke-linejoin:miter;stroke-opacity:1"
       d="m 35.967797,24.280019 c 2.499505,0.02906 4.538105,-0.926061 7.623863,2.15152 -0.31272,1.713648 -1.36592,3.572175 -5.238482,2.853103 -2.138507,-0.818423 -3.351198,-2.199433 -2.385381,-5.004623 z"
       id="path6686"
       inkscape:connector-curvature="0"
       sodipodi:nodetypes="cccc" />
  </g>
  <g
     inkscape:groupmode="layer"
     id="layer22"
     inkscape:label="Layer 22"
     style="display:inline">
    <path
       style="fill:#eadacd;fill-opacity:1;stroke:#000000;stroke-width:0.26458332px;stroke-linecap:butt;stroke-linejoin:miter;stroke-opacity:1"
       d="m 35.967797,24.280019 c 2.989205,0.07905 5.509124,0.823036 7.623862,2.15152 0.110235,-1.122716 0.114529,-2.227774 -0.514493,-3.22728 l -2.432153,-1.449937 c -2.610828,0.140729 -3.930768,1.142048 -4.677216,2.525697 z"
       id="path6689"
       inkscape:connector-curvature="0"
       sodipodi:nodetypes="ccccc" />
  </g>
  <g
     inkscape:groupmode="layer"
     id="layer23"
     inkscape:label="Layer 23"
     style="display:inline">
    <ellipse
       style="fill:#0b0a0a;fill-opacity:1;stroke:none;stroke-width:0.26458332"
       id="path6694"
       cx="39.616024"
       cy="25.753344"
       rx="0.37417734"
       ry="0.3975634" />
  </g>
  <g
     inkscape:groupmode="layer"
     id="layer24"
     inkscape:label="Layer 24">
    <path
       style="fill:#0097e6;fill-opacity:1;stroke:#000000;stroke-width:0.26458332px;stroke-linecap:butt;stroke-linejoin:miter;stroke-opacity:1"
       d="m 37.370961,20.725335 c 1.896846,1.23689 3.609611,2.65786 5.846522,3.554684 1.184894,0.408748 2.369788,0.572617 3.554682,0.608038 2.221587,-0.0941 4.447791,-0.16049 6.548106,-0.982215 1.516616,-0.207656 1.149288,-1.335798 -0.09354,-1.07576 -1.560706,0.361378 -3.115754,0.723887 -5.893292,0.841899 -1.261986,0.01447 -2.474608,0.09241 -4.583673,-0.982216 -1.449937,-0.942465 -2.899874,-1.790716 -4.349811,-3.086963 -0.899704,-0.721387 -1.916604,0.476347 -1.028989,1.122533 z"
       id="path6697"
       inkscape:connector-curvature="0"
       sodipodi:nodetypes="ccccccccc" />
  </g>
</svg>
