<?xml version="1.0" encoding="UTF-8"?>
<svg xmlns="http://www.w3.org/2000/svg" xmlns:xlink="http://www.w3.org/1999/xlink" viewBox="0 0 26 26" version="1.1">
    <g id="surface1">
        <path style="fill:#fff" d="M 13 0 C 7.226563 0 2.316406 3.785156 0.625 9 L 2.75 9 C 3.03125 8.28125 3.390625 7.605469 3.8125 6.96875 C 3.875 6.980469 3.933594 7 4 7 L 5.875 7 C 5.675781 7.632813 5.511719 8.308594 5.375 9 L 7.4375 9 C 7.59375 8.300781 7.773438 7.625 8 7 L 18 7 C 18.226563 7.625 18.40625 8.300781 18.5625 9 L 20.625 9 C 20.488281 8.308594 20.324219 7.632813 20.125 7 L 22 7 C 22.066406 7 22.125 6.980469 22.1875 6.96875 C 22.605469 7.605469 22.96875 8.28125 23.25 9 L 25.375 9 C 23.683594 3.785156 18.773438 0 13 0 Z M 13 2 C 14.550781 2 15.984375 3.152344 17.0625 5 L 8.9375 5 C 10.015625 3.152344 11.449219 2 13 2 Z M 7.5 3.46875 C 7.191406 3.9375 6.914063 4.457031 6.65625 5 L 5.46875 5 C 6.085938 4.417969 6.761719 3.898438 7.5 3.46875 Z M 18.5 3.46875 C 19.238281 3.898438 19.914063 4.417969 20.53125 5 L 19.34375 5 C 19.085938 4.457031 18.808594 3.9375 18.5 3.46875 Z M 0.25 10.90625 C 0.210938 10.925781 0.183594 10.96875 0.15625 11 C 0.105469 11.066406 0.09375 11.144531 0.125 11.21875 L 1.6875 15 C 1.726563 15.09375 1.820313 15.15625 1.9375 15.15625 L 2.78125 15.15625 C 2.890625 15.15625 2.988281 15.089844 3.03125 15 L 3.875 13.21875 C 3.949219 13.054688 4.019531 12.875 4.09375 12.6875 C 4.160156 12.855469 4.234375 13.007813 4.3125 13.1875 L 5.09375 15 C 5.132813 15.09375 5.230469 15.15625 5.34375 15.15625 L 6.21875 15.15625 C 6.332031 15.15625 6.429688 15.09375 6.46875 15 L 8.125 11.21875 C 8.15625 11.144531 8.148438 11.066406 8.09375 11 C 8.042969 10.933594 7.964844 10.90625 7.875 10.90625 L 6.9375 10.90625 C 6.820313 10.90625 6.726563 10.964844 6.6875 11.0625 L 5.9375 12.96875 C 5.871094 13.136719 5.832031 13.265625 5.78125 13.40625 C 5.722656 13.257813 5.664063 13.109375 5.59375 12.9375 L 4.78125 11.0625 C 4.742188 10.96875 4.644531 10.90625 4.53125 10.90625 L 3.75 10.90625 C 3.636719 10.90625 3.507813 10.96875 3.46875 11.0625 L 2.625 12.96875 C 2.554688 13.132813 2.496094 13.292969 2.4375 13.4375 C 2.386719 13.292969 2.339844 13.128906 2.28125 12.96875 L 1.59375 11.0625 C 1.558594 10.960938 1.464844 10.90625 1.34375 10.90625 L 0.375 10.90625 C 0.328125 10.90625 0.289063 10.886719 0.25 10.90625 Z M 9.1875 10.90625 C 9.148438 10.925781 9.089844 10.96875 9.0625 11 C 9.011719 11.066406 9 11.144531 9.03125 11.21875 L 10.59375 15 C 10.632813 15.09375 10.726563 15.15625 10.84375 15.15625 L 11.71875 15.15625 C 11.832031 15.15625 11.925781 15.089844 11.96875 15 L 12.8125 13.21875 C 12.886719 13.054688 12.957031 12.875 13.03125 12.6875 C 13.097656 12.855469 13.140625 13.007813 13.21875 13.1875 L 14.03125 15 C 14.070313 15.09375 14.167969 15.15625 14.28125 15.15625 L 15.125 15.15625 C 15.238281 15.15625 15.335938 15.09375 15.375 15 L 17.0625 11.21875 C 17.09375 11.144531 17.085938 11.066406 17.03125 11 C 16.980469 10.933594 16.875 10.90625 16.78125 10.90625 L 15.875 10.90625 C 15.757813 10.90625 15.632813 10.964844 15.59375 11.0625 L 14.875 12.96875 C 14.808594 13.136719 14.738281 13.265625 14.6875 13.40625 C 14.628906 13.257813 14.570313 13.109375 14.5 12.9375 L 13.71875 11.0625 C 13.679688 10.96875 13.550781 10.90625 13.4375 10.90625 L 12.65625 10.90625 C 12.542969 10.90625 12.445313 10.96875 12.40625 11.0625 L 11.5625 12.96875 C 11.492188 13.132813 11.433594 13.292969 11.375 13.4375 C 11.324219 13.292969 11.277344 13.128906 11.21875 12.96875 L 10.53125 11.0625 C 10.496094 10.960938 10.371094 10.90625 10.25 10.90625 L 9.3125 10.90625 C 9.269531 10.90625 9.226563 10.886719 9.1875 10.90625 Z M 18.09375 10.90625 C 18.054688 10.925781 18.027344 10.96875 18 11 C 17.949219 11.066406 17.941406 11.144531 17.96875 11.21875 L 19.53125 15 C 19.570313 15.09375 19.664063 15.15625 19.78125 15.15625 L 20.625 15.15625 C 20.734375 15.15625 20.832031 15.089844 20.875 15 L 21.71875 13.21875 C 21.792969 13.054688 21.863281 12.875 21.9375 12.6875 C 22.003906 12.855469 22.078125 13.007813 22.15625 13.1875 L 22.9375 15 C 22.976563 15.09375 23.074219 15.15625 23.1875 15.15625 L 24.0625 15.15625 C 24.175781 15.15625 24.269531 15.09375 24.3125 15 L 25.96875 11.21875 C 26 11.144531 25.988281 11.066406 25.9375 11 C 25.886719 10.933594 25.8125 10.90625 25.71875 10.90625 L 24.78125 10.90625 C 24.664063 10.90625 24.566406 10.964844 24.53125 11.0625 L 23.78125 12.96875 C 23.714844 13.136719 23.675781 13.265625 23.625 13.40625 C 23.566406 13.257813 23.507813 13.109375 23.4375 12.9375 L 22.625 11.0625 C 22.585938 10.96875 22.488281 10.90625 22.375 10.90625 L 21.5625 10.90625 C 21.449219 10.90625 21.351563 10.96875 21.3125 11.0625 L 20.46875 12.96875 C 20.398438 13.132813 20.339844 13.292969 20.28125 13.4375 C 20.230469 13.292969 20.183594 13.128906 20.125 12.96875 L 19.4375 11.0625 C 19.402344 10.960938 19.308594 10.90625 19.1875 10.90625 L 18.21875 10.90625 C 18.171875 10.90625 18.132813 10.886719 18.09375 10.90625 Z M 0.625 17 C 2.316406 22.214844 7.226563 26 13 26 C 18.773438 26 23.683594 22.214844 25.375 17 L 23.25 17 C 22.96875 17.71875 22.605469 18.394531 22.1875 19.03125 C 22.125 19.019531 22.066406 19 22 19 L 20.125 19 C 20.324219 18.367188 20.457031 17.691406 20.59375 17 L 18.5625 17 C 18.410156 17.699219 18.226563 18.378906 18 19 L 8 19 C 7.773438 18.378906 7.59375 17.699219 7.4375 17 L 5.40625 17 C 5.542969 17.691406 5.675781 18.367188 5.875 19 L 4 19 C 3.933594 19 3.875 19.019531 3.8125 19.03125 C 3.394531 18.394531 3.03125 17.71875 2.75 17 Z M 5.46875 21 L 6.65625 21 C 6.914063 21.542969 7.191406 22.0625 7.5 22.53125 C 6.761719 22.101563 6.085938 21.582031 5.46875 21 Z M 8.9375 21 L 17.0625 21 C 15.984375 22.847656 14.550781 24 13 24 C 11.449219 24 10.015625 22.847656 8.9375 21 Z M 19.34375 21 L 20.53125 21 C 19.914063 21.582031 19.238281 22.101563 18.5 22.53125 C 18.808594 22.0625 19.085938 21.542969 19.34375 21 Z "></path>
    </g>
</svg>
