<?xml version="1.0" ?>
<!DOCTYPE svg  PUBLIC '-//W3C//DTD SVG 1.1//EN'  'http://www.w3.org/Graphics/SVG/1.1/DTD/svg11.dtd'>
<svg enable-background="new 0 0 1024 1024" height="1024px" id="Layer_1" version="1.1" viewBox="0 0 1024 1024" width="1024px" xml:space="preserve" xmlns="http://www.w3.org/2000/svg" xmlns:xlink="http://www.w3.org/1999/xlink">
    <g fill="#fff">
        <g>
            <path clip-rule="evenodd" d="M179.635,956.01c176.795,0,352.015,0,528.464,0c0-116.97,0-233.235,0-350.432     c23.323,0,45.438,0,68.278,0c0,139.224,0,278.342,0,418.422c-221.237,0-442.369,0-664.377,0c0-139.282,0-278.341,0-418.377     c21.836,0,43.942,0,67.635,0C179.635,722.307,179.635,838.875,179.635,956.01z" fill-rule="evenodd"/>
            <g>
                <path clip-rule="evenodd" d="M912,397.48c-28.812,5.022-55.718,9.71-84.774,14.775      c-22.95-132.317-45.851-264.348-68.952-397.551C786.671,9.783,814.23,5.004,843.096,0C866.104,132.718,888.947,264.5,912,397.48      z" fill-rule="evenodd"/>
                <path clip-rule="evenodd" d="M811.493,417.091c-24.061,16.443-47.212,32.271-71.112,48.605      c-75.748-111.212-151.114-221.861-227.062-333.363c23.935-16.352,47.061-32.146,71.11-48.573      C660.198,194.987,735.369,305.339,811.493,417.091z" fill-rule="evenodd"/>
                <path clip-rule="evenodd" d="M675.46,579.057c-7.584,28.152-14.867,55.18-22.422,83.225      c-130.123-35.026-259.168-69.764-389.085-104.736c7.577-28.152,14.861-55.214,22.403-83.23      C416.401,509.319,545.438,544.055,675.46,579.057z" fill-rule="evenodd"/>
                <path clip-rule="evenodd" d="M651.874,691.831c-2.724,29.17-5.302,56.763-8.013,85.767      c-133.83-12.346-266.723-24.604-401.113-37.002c2.641-28.916,5.188-56.823,7.836-85.816      C384.652,667.159,517.538,679.428,651.874,691.831z" fill-rule="evenodd"/>
                <path clip-rule="evenodd" d="M681.309,555.31c-116.132-68.583-231.1-136.479-347.084-204.977      c14.671-24.904,28.88-49.028,43.717-74.216c115.846,68.405,230.765,136.266,347.014,204.909      C710.452,505.71,696.28,529.828,681.309,555.31z" fill-rule="evenodd"/>
                <path clip-rule="evenodd" d="M639.035,887.785c-133.832,0-267.036,0-401.244,0c0-28.027,0-55.982,0-84.824      c133.327,0,266.803,0,401.244,0C639.035,830.588,639.035,858.556,639.035,887.785z" fill-rule="evenodd"/>
            </g>
        </g>
    </g>
</svg>