<?xml version="1.0" encoding="UTF-8"?>
<svg xmlns="http://www.w3.org/2000/svg" xmlns:xlink="http://www.w3.org/1999/xlink" viewBox="0 0 16 16" version="1.1">
    <g id="surface1">
        <path d="M 4.5 2 C 3.675781 2 3 2.675781 3 3.5 L 3 9 L 4 9 L 4 3.5 C 4 3.21875 4.21875 3 4.5 3 L 9 3 L 9 6 L 12 6 L 12 9.023438 L 13 9.023438 L 13 5.292969 L 9.707031 2 Z M 10 3.707031 L 11.292969 5 L 10 5 Z M 8.007813 8.773438 L 6.757813 14.773438 L 7.742188 14.976563 L 8.992188 8.976563 Z M 5.34375 9.277344 L 3.066406 11.625 L 5.34375 13.972656 L 6.0625 13.277344 L 4.460938 11.625 L 6.0625 9.972656 Z M 10.734375 9.277344 L 10.015625 9.972656 L 11.617188 11.625 L 10.015625 13.277344 L 10.734375 13.972656 L 13.011719 11.625 Z "></path>
    </g>
</svg>
